<svg width="1140" height="495" viewBox="0 0 1140 495" fill="none" xmlns="http://www.w3.org/2000/svg">
<rect x="125.363" y="494.081" width="11.1867" height="125.291" transform="rotate(-90 125.363 494.081)" fill="#30277D"/>
<rect y="367.08" width="11.1867" height="178.469" transform="rotate(-44.6334 0 367.08)" fill="#30277D"/>
<rect x="11.2588" y="367.671" width="11.1867" height="356.111" transform="rotate(-180 11.2588 367.671)" fill="#30277D"/>
<rect x="0.0717773" y="22.7466" width="11.1867" height="364.688" transform="rotate(-90 0.0717773 22.7466)" fill="#30277D"/>
<rect x="359.539" y="260.278" width="260.278" height="11.1867" transform="rotate(-90 359.539 260.278)" fill="#30277D"/>
<rect x="258.112" y="259.533" width="247.973" height="11.1867" transform="rotate(-90 258.112 259.533)" fill="#30277D"/>
<rect x="246.926" y="482.894" width="177.869" height="11.1867" transform="rotate(-90 246.926 482.894)" fill="#30277D"/>
<rect x="359.166" y="488.488" width="65.6288" height="11.1867" transform="rotate(-90 359.166 488.488)" fill="#30277D"/>
<rect x="359.166" y="397.875" width="115.596" height="11.1867" transform="rotate(-90 359.166 397.875)" fill="#30277D"/>
<rect x="614.596" y="426.215" width="143.936" height="11.1867" transform="rotate(-90 614.596 426.215)" fill="#30277D"/>
<rect x="364.759" y="11.5596" width="11.1867" height="769.647" transform="rotate(-90 364.759 11.5596)" fill="#30277D"/>
<rect x="1128.81" y="113.359" width="112.986" height="11.1867" transform="rotate(-90 1128.81 113.359)" fill="#30277D"/>
<rect x="1128.81" y="491.471" width="341.195" height="11.1867" transform="rotate(-90 1128.81 491.471)" fill="#30277D"/>
<rect x="1140" y="494.081" width="889.345" height="11.1867" transform="rotate(-180 1140 494.081)" fill="#30277D"/>
<rect x="1086.3" y="302.042" width="11.1867" height="42.5096" transform="rotate(-90 1086.3 302.042)" fill="#30277D"/>
<rect x="1113.15" y="113.359" width="11.1867" height="26.8482" transform="rotate(-90 1113.15 113.359)" fill="#30277D"/>
<rect x="1033.73" y="113.359" width="11.1867" height="39.8994" transform="rotate(-90 1033.73 113.359)" fill="#30277D"/>
<rect x="1033.73" y="65.6289" width="11.1867" height="39.8994" transform="rotate(-90 1033.73 65.6289)" fill="#30277D"/>
<rect x="1079.22" y="79.7993" width="11.1867" height="39.8994" transform="rotate(180 1079.22 79.7993)" fill="#30277D"/>
<rect x="1022.54" y="302.042" width="11.1867" height="42.5096" transform="rotate(-90 1022.54 302.042)" fill="#30277D"/>
<rect x="1033.73" y="482.894" width="11.1867" height="146.173" transform="rotate(-180 1033.73 482.894)" fill="#30277D"/>
<rect x="1033.73" y="315.839" width="11.1867" height="105.901" transform="rotate(-180 1033.73 315.839)" fill="#30277D"/>
<rect x="927.825" y="169.666" width="11.1867" height="105.901" transform="rotate(-90 927.825 169.666)" fill="#30277D"/>
<rect x="810.364" y="169.666" width="11.1867" height="85.3921" transform="rotate(-90 810.364 169.666)" fill="#30277D"/>
<rect x="852.874" y="169.666" width="11.1867" height="72.7138" transform="rotate(-180 852.874 169.666)" fill="#30277D"/>
<rect x="852.874" y="70.104" width="11.1867" height="69.7306" transform="rotate(-180 852.874 70.104)" fill="#30277D"/>
<rect x="782.024" y="168.174" width="11.1867" height="167.801" transform="rotate(-180 782.024 168.174)" fill="#30277D"/>
<rect x="700.734" y="243.871" width="11.1867" height="243.498" transform="rotate(-180 700.734 243.871)" fill="#30277D"/>
<rect x="527.34" y="162.581" width="11.1867" height="162.208" transform="rotate(-180 527.34 162.581)" fill="#30277D"/>
<rect x="370.353" y="243.871" width="11.1867" height="145.8" transform="rotate(-90 370.353 243.871)" fill="#30277D"/>
<rect x="246.926" y="316.212" width="11.1867" height="123.8" transform="rotate(-90 246.926 316.212)" fill="#30277D"/>
<rect x="428.524" y="434.045" width="11.1867" height="37.2891" transform="rotate(-90 428.524 434.045)" fill="#30277D"/>
<rect x="620.189" y="362.078" width="11.1867" height="45.1198" transform="rotate(-90 620.189 362.078)" fill="#30277D"/>
<rect x="757.787" y="356.484" width="11.1867" height="78.68" transform="rotate(-90 757.787 356.484)" fill="#30277D"/>
<rect x="875.247" y="356.484" width="11.1867" height="78.68" transform="rotate(-90 875.247 356.484)" fill="#30277D"/>
<rect x="886.434" y="488.488" width="11.1867" height="143.19" transform="rotate(-180 886.434 488.488)" fill="#30277D"/>
<rect x="836.467" y="488.488" width="11.1867" height="143.19" transform="rotate(-180 836.467 488.488)" fill="#30277D"/>
<rect x="760.77" y="488.488" width="11.1867" height="62.2728" transform="rotate(-180 760.77 488.488)" fill="#30277D"/>
<rect x="760.77" y="407.57" width="11.1867" height="70.8493" transform="rotate(-180 760.77 407.57)" fill="#30277D"/>
<rect x="761.888" y="314.72" width="11.1867" height="98.8162" transform="rotate(-180 761.888 314.72)" fill="#30277D"/>
<rect x="983.759" y="356.484" width="11.1867" height="49.9674" transform="rotate(-90 983.759 356.484)" fill="#30277D"/>
<rect x="757.787" y="299.059" width="11.1867" height="37.2891" transform="rotate(-90 757.787 299.059)" fill="#30277D"/>
<rect x="812.229" y="299.059" width="11.1867" height="37.2891" transform="rotate(-90 812.229 299.059)" fill="#30277D"/>
<rect x="874.875" y="299.059" width="11.1867" height="37.2891" transform="rotate(-90 874.875 299.059)" fill="#30277D"/>
<rect x="937.52" y="299.059" width="11.1867" height="37.2891" transform="rotate(-90 937.52 299.059)" fill="#30277D"/>
<rect x="996.437" y="299.059" width="11.1867" height="37.2891" transform="rotate(-90 996.437 299.059)" fill="#30277D"/>
<rect x="757.787" y="227.091" width="11.1867" height="37.2891" transform="rotate(-90 757.787 227.091)" fill="#30277D"/>
<rect x="736.532" y="168.174" width="11.1867" height="37.2891" transform="rotate(-90 736.532 168.174)" fill="#30277D"/>
<rect x="625.783" y="164.072" width="11.1867" height="63.7644" transform="rotate(-90 625.783 164.072)" fill="#30277D"/>
<rect x="516.153" y="164.072" width="11.1867" height="63.7644" transform="rotate(-90 516.153 164.072)" fill="#30277D"/>
<rect x="365.132" y="166.31" width="11.1867" height="52.5777" transform="rotate(-90 365.132 166.31)" fill="#30277D"/>
<rect x="442.321" y="166.31" width="11.1867" height="38.7807" transform="rotate(-90 442.321 166.31)" fill="#30277D"/>
<rect x="477.373" y="135.732" width="11.1867" height="38.7807" transform="rotate(-90 477.373 135.732)" fill="#30277D"/>
<rect x="484.83" y="166.31" width="11.1867" height="41.7638" transform="rotate(-180 484.83 166.31)" fill="#30277D"/>
<rect x="485" y="195" width="11" height="30" transform="rotate(-180 485 195)" fill="#30277D"/>
<rect x="434.49" y="434.045" width="11.1867" height="88.7481" transform="rotate(-180 434.49 434.045)" fill="#30277D"/>
<rect x="529.95" y="434.045" width="11.1867" height="88.7481" transform="rotate(-180 529.95 434.045)" fill="#30277D"/>
<rect x="700.734" y="434.045" width="11.1867" height="94.3415" transform="rotate(-180 700.734 434.045)" fill="#30277D"/>
<rect x="700.361" y="320.313" width="11.1867" height="38.0349" transform="rotate(-180 700.361 320.313)" fill="#30277D"/>
<rect x="836.467" y="293.466" width="11.1867" height="71.2222" transform="rotate(-180 836.467 293.466)" fill="#30277D"/>
<rect x="899.943" y="290.855" width="11.1867" height="71.2222" transform="rotate(-180 899.943 290.855)" fill="#30277D"/>
<rect x="958.927" y="290.855" width="11.1867" height="71.2222" transform="rotate(-180 958.927 290.855)" fill="#30277D"/>
<rect x="817.822" y="227.091" width="11.1867" height="204.717" transform="rotate(-90 817.822 227.091)" fill="#30277D"/>
<rect x="624.292" y="293.466" width="11.1867" height="76.4427" transform="rotate(-90 624.292 293.466)" fill="#30277D"/>
<rect x="487.067" y="434.045" width="11.1867" height="74.9511" transform="rotate(-90 487.067 434.045)" fill="#30277D"/>
<rect x="583.273" y="434.045" width="11.1867" height="82.0361" transform="rotate(-90 583.273 434.045)" fill="#30277D"/>
<rect x="428.524" y="356.484" width="11.1867" height="191.666" transform="rotate(-90 428.524 356.484)" fill="#30277D"/>
<rect x="554.934" y="243.871" width="11.1867" height="145.8" transform="rotate(-90 554.934 243.871)" fill="#30277D"/>
<rect x="1033.73" y="174.141" width="11.1867" height="166.682" transform="rotate(-180 1033.73 174.141)" fill="#30277D"/>
</svg>
