<svg width="1140" height="495" viewBox="0 0 1140 495" fill="none" xmlns="http://www.w3.org/2000/svg">
<path d="M130.5 182.518C121.39 184.588 117.289 192.535 117.289 199.515C117.289 199.515 117.289 199.515 117.289 199.535C117.289 206.495 121.37 214.462 130.48 216.532C140.655 218.839 149.272 212.608 154.694 206.969C156.706 204.878 157.711 202.197 157.711 199.515C157.711 196.833 156.706 194.152 154.694 192.081C149.272 186.442 140.675 180.211 130.5 182.518ZM140.379 199.515C140.379 202.946 137.598 205.726 134.167 205.726C130.736 205.726 127.956 202.946 127.956 199.515C127.956 196.084 130.736 193.304 134.167 193.304C137.598 193.304 140.379 196.084 140.379 199.515Z" fill="#30277D"/>
<path d="M311.5 139.204C302.39 141.275 298.289 149.221 298.289 156.202C298.289 156.202 298.289 156.202 298.289 156.221C298.289 163.182 302.37 171.148 311.48 173.219C321.655 175.526 330.272 169.295 335.694 163.655C337.706 161.565 338.711 158.883 338.711 156.202C338.711 153.52 337.706 150.838 335.694 148.768C330.272 143.128 321.675 136.897 311.5 139.204ZM321.379 156.202C321.379 159.633 318.598 162.413 315.167 162.413C311.736 162.413 308.956 159.633 308.956 156.202C308.956 152.771 311.736 149.99 315.167 149.99C318.598 149.99 321.379 152.771 321.379 156.202Z" fill="#30277D"/>
<path d="M433.5 64.2043C424.39 66.2748 420.289 74.2213 420.289 81.2015C420.289 81.2015 420.289 81.2015 420.289 81.2213C420.289 88.1819 424.37 96.1481 433.48 98.2185C443.655 100.526 452.272 94.2946 457.694 88.6551C459.706 86.565 460.711 83.8832 460.711 81.2015C460.711 78.5198 459.706 75.8382 457.694 73.7677C452.272 68.1283 443.675 61.8973 433.5 64.2043ZM443.379 81.2015C443.379 84.6325 440.598 87.4129 437.167 87.4129C433.736 87.4129 430.956 84.6325 430.956 81.2015C430.956 77.7705 433.736 74.9903 437.167 74.9903C440.598 74.9903 443.379 77.7705 443.379 81.2015Z" fill="#30277D"/>
<path d="M599.5 65.2043C590.39 67.2748 586.289 75.2213 586.289 82.2015C586.289 82.2015 586.289 82.2015 586.289 82.2213C586.289 89.1819 590.37 97.1481 599.48 99.2185C609.655 101.526 618.272 95.2946 623.694 89.6551C625.706 87.565 626.711 84.8832 626.711 82.2015C626.711 79.5198 625.706 76.8382 623.694 74.7677C618.272 69.1283 609.675 62.8973 599.5 65.2043ZM609.379 82.2015C609.379 85.6325 606.598 88.4129 603.167 88.4129C599.736 88.4129 596.956 85.6325 596.956 82.2015C596.956 78.7705 599.736 75.9903 603.167 75.9903C606.598 75.9903 609.379 78.7705 609.379 82.2015Z" fill="#30277D"/>
<path d="M728.5 67.2043C719.39 69.2748 715.289 77.2213 715.289 84.2015C715.289 84.2015 715.289 84.2015 715.289 84.2213C715.289 91.1819 719.37 99.1481 728.48 101.219C738.655 103.526 747.272 97.2946 752.694 91.6551C754.706 89.565 755.711 86.8832 755.711 84.2015C755.711 81.5198 754.706 78.8382 752.694 76.7677C747.272 71.1283 738.675 64.8973 728.5 67.2043ZM738.379 84.2015C738.379 87.6325 735.598 90.4129 732.167 90.4129C728.736 90.4129 725.956 87.6325 725.956 84.2015C725.956 80.7705 728.736 77.9903 732.167 77.9903C735.598 77.9903 738.379 80.7705 738.379 84.2015Z" fill="#30277D"/>
<path d="M807.5 67.2043C798.39 69.2748 794.289 77.2213 794.289 84.2015C794.289 84.2015 794.289 84.2015 794.289 84.2213C794.289 91.1819 798.37 99.1481 807.48 101.219C817.655 103.526 826.272 97.2946 831.694 91.6551C833.706 89.565 834.711 86.8832 834.711 84.2015C834.711 81.5198 833.706 78.8382 831.694 76.7677C826.272 71.1283 817.675 64.8973 807.5 67.2043ZM817.379 84.2015C817.379 87.6325 814.598 90.4129 811.167 90.4129C807.736 90.4129 804.956 87.6325 804.956 84.2015C804.956 80.7705 807.736 77.9903 811.167 77.9903C814.598 77.9903 817.379 80.7705 817.379 84.2015Z" fill="#30277D"/>
<path d="M936.5 67.2043C927.39 69.2748 923.289 77.2213 923.289 84.2015C923.289 84.2015 923.289 84.2015 923.289 84.2213C923.289 91.1819 927.37 99.1481 936.48 101.219C946.655 103.526 955.272 97.2946 960.694 91.6551C962.706 89.565 963.711 86.8832 963.711 84.2015C963.711 81.5198 962.706 78.8382 960.694 76.7677C955.272 71.1283 946.675 64.8973 936.5 67.2043ZM946.379 84.2015C946.379 87.6325 943.598 90.4129 940.167 90.4129C936.736 90.4129 933.956 87.6325 933.956 84.2015C933.956 80.7705 936.736 77.9903 940.167 77.9903C943.598 77.9903 946.379 80.7705 946.379 84.2015Z" fill="#30277D"/>
<path d="M786.5 240.204C777.39 242.275 773.289 250.221 773.289 257.202C773.289 257.202 773.289 257.202 773.289 257.221C773.289 264.182 777.37 272.148 786.48 274.219C796.655 276.526 805.272 270.295 810.694 264.655C812.706 262.565 813.711 259.883 813.711 257.202C813.711 254.52 812.706 251.838 810.694 249.768C805.272 244.128 796.675 237.897 786.5 240.204ZM796.379 257.202C796.379 260.633 793.598 263.413 790.167 263.413C786.736 263.413 783.956 260.633 783.956 257.202C783.956 253.771 786.736 250.99 790.167 250.99C793.598 250.99 796.379 253.771 796.379 257.202Z" fill="#30277D"/>
<path d="M854.5 240.204C845.39 242.275 841.289 250.221 841.289 257.202C841.289 257.202 841.289 257.202 841.289 257.221C841.289 264.182 845.37 272.148 854.48 274.219C864.655 276.526 873.272 270.295 878.694 264.655C880.706 262.565 881.711 259.883 881.711 257.202C881.711 254.52 880.706 251.838 878.694 249.768C873.272 244.128 864.675 237.897 854.5 240.204ZM864.379 257.202C864.379 260.633 861.598 263.413 858.167 263.413C854.736 263.413 851.956 260.633 851.956 257.202C851.956 253.771 854.736 250.99 858.167 250.99C861.598 250.99 864.379 253.771 864.379 257.202Z" fill="#30277D"/>
<path d="M918.5 241.204C909.39 243.275 905.289 251.221 905.289 258.202C905.289 258.202 905.289 258.202 905.289 258.221C905.289 265.182 909.37 273.148 918.48 275.219C928.655 277.526 937.272 271.295 942.694 265.655C944.706 263.565 945.711 260.883 945.711 258.202C945.711 255.52 944.706 252.838 942.694 250.768C937.272 245.128 928.675 238.897 918.5 241.204ZM928.379 258.202C928.379 261.633 925.598 264.413 922.167 264.413C918.736 264.413 915.956 261.633 915.956 258.202C915.956 254.771 918.736 251.99 922.167 251.99C925.598 251.99 928.379 254.771 928.379 258.202Z" fill="#30277D"/>
<path d="M982.5 241.204C973.39 243.275 969.289 251.221 969.289 258.202C969.289 258.202 969.289 258.202 969.289 258.221C969.289 265.182 973.37 273.148 982.48 275.219C992.655 277.526 1001.27 271.295 1006.69 265.655C1008.71 263.565 1009.71 260.883 1009.71 258.202C1009.71 255.52 1008.71 252.838 1006.69 250.768C1001.27 245.128 992.675 238.897 982.5 241.204ZM992.379 258.202C992.379 261.633 989.598 264.413 986.167 264.413C982.736 264.413 979.956 261.633 979.956 258.202C979.956 254.771 982.736 251.99 986.167 251.99C989.598 251.99 992.379 254.771 992.379 258.202Z" fill="#30277D"/>
<path d="M1078.5 184.204C1069.39 186.275 1065.29 194.221 1065.29 201.202C1065.29 201.202 1065.29 201.202 1065.29 201.221C1065.29 208.182 1069.37 216.148 1078.48 218.219C1088.65 220.526 1097.27 214.295 1102.69 208.655C1104.71 206.565 1105.71 203.883 1105.71 201.202C1105.71 198.52 1104.71 195.838 1102.69 193.768C1097.27 188.128 1088.67 181.897 1078.5 184.204ZM1088.38 201.202C1088.38 204.633 1085.6 207.413 1082.17 207.413C1078.74 207.413 1075.96 204.633 1075.96 201.202C1075.96 197.771 1078.74 194.99 1082.17 194.99C1085.6 194.99 1088.38 197.771 1088.38 201.202Z" fill="#30277D"/>
<path d="M1078.5 370.204C1069.39 372.275 1065.29 380.221 1065.29 387.202C1065.29 387.202 1065.29 387.202 1065.29 387.221C1065.29 394.182 1069.37 402.148 1078.48 404.219C1088.65 406.526 1097.27 400.295 1102.69 394.655C1104.71 392.565 1105.71 389.883 1105.71 387.202C1105.71 384.52 1104.71 381.838 1102.69 379.768C1097.27 374.128 1088.67 367.897 1078.5 370.204ZM1088.38 387.202C1088.38 390.633 1085.6 393.413 1082.17 393.413C1078.74 393.413 1075.96 390.633 1075.96 387.202C1075.96 383.771 1078.74 380.99 1082.17 380.99C1085.6 380.99 1088.38 383.771 1088.38 387.202Z" fill="#30277D"/>
<path d="M946.5 397.204C937.39 399.275 933.289 407.221 933.289 414.202C933.289 414.202 933.289 414.202 933.289 414.221C933.289 421.182 937.37 429.148 946.48 431.219C956.655 433.526 965.272 427.295 970.694 421.655C972.706 419.565 973.711 416.883 973.711 414.202C973.711 411.52 972.706 408.838 970.694 406.768C965.272 401.128 956.675 394.897 946.5 397.204ZM956.379 414.202C956.379 417.633 953.598 420.413 950.167 420.413C946.736 420.413 943.956 417.633 943.956 414.202C943.956 410.771 946.736 407.99 950.167 407.99C953.598 407.99 956.379 410.771 956.379 414.202Z" fill="#30277D"/>
<path d="M849.5 397.204C840.39 399.275 836.289 407.221 836.289 414.202C836.289 414.202 836.289 414.202 836.289 414.221C836.289 421.182 840.37 429.148 849.48 431.219C859.655 433.526 868.272 427.295 873.694 421.655C875.706 419.565 876.711 416.883 876.711 414.202C876.711 411.52 875.706 408.838 873.694 406.768C868.272 401.128 859.675 394.897 849.5 397.204ZM859.379 414.202C859.379 417.633 856.598 420.413 853.167 420.413C849.736 420.413 846.956 417.633 846.956 414.202C846.956 410.771 849.736 407.99 853.167 407.99C856.598 407.99 859.379 410.771 859.379 414.202Z" fill="#30277D"/>
<path d="M785.5 397.204C776.39 399.275 772.289 407.221 772.289 414.202C772.289 414.202 772.289 414.202 772.289 414.221C772.289 421.182 776.37 429.148 785.48 431.219C795.655 433.526 804.272 427.295 809.694 421.655C811.706 419.565 812.711 416.883 812.711 414.202C812.711 411.52 811.706 408.838 809.694 406.768C804.272 401.128 795.675 394.897 785.5 397.204ZM795.379 414.202C795.379 417.633 792.598 420.413 789.167 420.413C785.736 420.413 782.956 417.633 782.956 414.202C782.956 410.771 785.736 407.99 789.167 407.99C792.598 407.99 795.379 410.771 795.379 414.202Z" fill="#30277D"/>
<path d="M653.5 373.204C644.39 375.275 640.289 383.221 640.289 390.202C640.289 390.202 640.289 390.202 640.289 390.221C640.289 397.182 644.37 405.148 653.48 407.219C663.655 409.526 672.272 403.295 677.694 397.655C679.706 395.565 680.711 392.883 680.711 390.202C680.711 387.52 679.706 384.838 677.694 382.768C672.272 377.128 663.675 370.897 653.5 373.204ZM663.379 390.202C663.379 393.633 660.598 396.413 657.167 396.413C653.736 396.413 650.956 393.633 650.956 390.202C650.956 386.771 653.736 383.99 657.167 383.99C660.598 383.99 663.379 386.771 663.379 390.202Z" fill="#30277D"/>
<path d="M653.5 304.204C644.39 306.275 640.289 314.221 640.289 321.202C640.289 321.202 640.289 321.202 640.289 321.221C640.289 328.182 644.37 336.148 653.48 338.219C663.655 340.526 672.272 334.295 677.694 328.655C679.706 326.565 680.711 323.883 680.711 321.202C680.711 318.52 679.706 315.838 677.694 313.768C672.272 308.128 663.675 301.897 653.5 304.204ZM663.379 321.202C663.379 324.633 660.598 327.413 657.167 327.413C653.736 327.413 650.956 324.633 650.956 321.202C650.956 317.771 653.736 314.99 657.167 314.99C660.598 314.99 663.379 317.771 663.379 321.202Z" fill="#30277D"/>
<path d="M566.5 373.204C557.39 375.275 553.289 383.221 553.289 390.202C553.289 390.202 553.289 390.202 553.289 390.221C553.289 397.182 557.37 405.148 566.48 407.219C576.655 409.526 585.272 403.295 590.694 397.655C592.706 395.565 593.711 392.883 593.711 390.202C593.711 387.52 592.706 384.838 590.694 382.768C585.272 377.128 576.675 370.897 566.5 373.204ZM576.379 390.202C576.379 393.633 573.598 396.413 570.167 396.413C566.736 396.413 563.956 393.633 563.956 390.202C563.956 386.771 566.736 383.99 570.167 383.99C573.598 383.99 576.379 386.771 576.379 390.202Z" fill="#30277D"/>
<path d="M471.5 375.204C462.39 377.275 458.289 385.221 458.289 392.202C458.289 392.202 458.289 392.202 458.289 392.221C458.289 399.182 462.37 407.148 471.48 409.219C481.655 411.526 490.272 405.295 495.694 399.655C497.706 397.565 498.711 394.883 498.711 392.202C498.711 389.52 497.706 386.838 495.694 384.768C490.272 379.128 481.675 372.897 471.5 375.204ZM481.379 392.202C481.379 395.633 478.598 398.413 475.167 398.413C471.736 398.413 468.956 395.633 468.956 392.202C468.956 388.771 471.736 385.99 475.167 385.99C478.598 385.99 481.379 388.771 481.379 392.202Z" fill="#30277D"/>
<path d="M515.5 274.204C506.39 276.275 502.289 284.221 502.289 291.202C502.289 291.202 502.289 291.202 502.289 291.221C502.289 298.182 506.37 306.148 515.48 308.219C525.655 310.526 534.272 304.295 539.694 298.655C541.706 296.565 542.711 293.883 542.711 291.202C542.711 288.52 541.706 285.838 539.694 283.768C534.272 278.128 525.675 271.897 515.5 274.204ZM525.379 291.202C525.379 294.633 522.598 297.413 519.167 297.413C515.736 297.413 512.956 294.633 512.956 291.202C512.956 287.771 515.736 284.99 519.167 284.99C522.598 284.99 525.379 287.771 525.379 291.202Z" fill="#30277D"/>
<path d="M523.5 179.204C514.39 181.275 510.289 189.221 510.289 196.202C510.289 196.202 510.289 196.202 510.289 196.221C510.289 203.182 514.37 211.148 523.48 213.219C533.655 215.526 542.272 209.295 547.694 203.655C549.706 201.565 550.711 198.883 550.711 196.202C550.711 193.52 549.706 190.838 547.694 188.768C542.272 183.128 533.675 176.897 523.5 179.204ZM533.379 196.202C533.379 199.633 530.598 202.413 527.167 202.413C523.736 202.413 520.956 199.633 520.956 196.202C520.956 192.771 523.736 189.99 527.167 189.99C530.598 189.99 533.379 192.771 533.379 196.202Z" fill="#30277D"/>
<rect x="125.363" y="494.081" width="11.1867" height="125.291" transform="rotate(-90 125.363 494.081)" fill="#30277D"/>
<rect y="367.08" width="11.1867" height="178.469" transform="rotate(-44.6334 0 367.08)" fill="#30277D"/>
<rect x="11.2588" y="367.671" width="11.1867" height="356.111" transform="rotate(-180 11.2588 367.671)" fill="#30277D"/>
<rect x="0.0717773" y="22.7466" width="11.1867" height="364.688" transform="rotate(-90 0.0717773 22.7466)" fill="#30277D"/>
<rect x="359.539" y="260.278" width="260.278" height="11.1867" transform="rotate(-90 359.539 260.278)" fill="#30277D"/>
<rect x="258.112" y="259.533" width="247.973" height="11.1867" transform="rotate(-90 258.112 259.533)" fill="#30277D"/>
<rect x="246.926" y="482.894" width="177.869" height="11.1867" transform="rotate(-90 246.926 482.894)" fill="#30277D"/>
<rect x="359.166" y="488.488" width="65.6288" height="11.1867" transform="rotate(-90 359.166 488.488)" fill="#30277D"/>
<rect x="359.166" y="397.875" width="115.596" height="11.1867" transform="rotate(-90 359.166 397.875)" fill="#30277D"/>
<rect x="614.596" y="426.215" width="143.936" height="11.1867" transform="rotate(-90 614.596 426.215)" fill="#30277D"/>
<rect x="364.759" y="11.5596" width="11.1867" height="769.647" transform="rotate(-90 364.759 11.5596)" fill="#30277D"/>
<rect x="1128.81" y="113.359" width="112.986" height="11.1867" transform="rotate(-90 1128.81 113.359)" fill="#30277D"/>
<rect x="1128.81" y="491.471" width="341.195" height="11.1867" transform="rotate(-90 1128.81 491.471)" fill="#30277D"/>
<rect x="1140" y="494.081" width="889.345" height="11.1867" transform="rotate(-180 1140 494.081)" fill="#30277D"/>
<rect x="1086.3" y="302.042" width="11.1867" height="42.5096" transform="rotate(-90 1086.3 302.042)" fill="#30277D"/>
<rect x="1113.15" y="113.359" width="11.1867" height="26.8482" transform="rotate(-90 1113.15 113.359)" fill="#30277D"/>
<rect x="1033.73" y="113.359" width="11.1867" height="39.8994" transform="rotate(-90 1033.73 113.359)" fill="#30277D"/>
<rect x="1033.73" y="65.6289" width="11.1867" height="39.8994" transform="rotate(-90 1033.73 65.6289)" fill="#30277D"/>
<rect x="1079.22" y="79.7993" width="11.1867" height="39.8994" transform="rotate(180 1079.22 79.7993)" fill="#30277D"/>
<rect x="1022.54" y="302.042" width="11.1867" height="42.5096" transform="rotate(-90 1022.54 302.042)" fill="#30277D"/>
<rect x="1033.73" y="482.894" width="11.1867" height="146.173" transform="rotate(-180 1033.73 482.894)" fill="#30277D"/>
<rect x="1033.73" y="315.839" width="11.1867" height="105.901" transform="rotate(-180 1033.73 315.839)" fill="#30277D"/>
<rect x="927.825" y="169.666" width="11.1867" height="105.901" transform="rotate(-90 927.825 169.666)" fill="#30277D"/>
<rect x="810.364" y="169.666" width="11.1867" height="85.3921" transform="rotate(-90 810.364 169.666)" fill="#30277D"/>
<rect x="852.874" y="169.666" width="11.1867" height="72.7138" transform="rotate(-180 852.874 169.666)" fill="#30277D"/>
<rect x="852.874" y="70.104" width="11.1867" height="69.7306" transform="rotate(-180 852.874 70.104)" fill="#30277D"/>
<rect x="782.024" y="168.174" width="11.1867" height="167.801" transform="rotate(-180 782.024 168.174)" fill="#30277D"/>
<rect x="700.734" y="243.871" width="11.1867" height="243.498" transform="rotate(-180 700.734 243.871)" fill="#30277D"/>
<rect x="527.34" y="162.581" width="11.1867" height="162.208" transform="rotate(-180 527.34 162.581)" fill="#30277D"/>
<rect x="370.353" y="243.871" width="11.1867" height="145.8" transform="rotate(-90 370.353 243.871)" fill="#30277D"/>
<rect x="246.926" y="316.212" width="11.1867" height="123.8" transform="rotate(-90 246.926 316.212)" fill="#30277D"/>
<rect x="428.524" y="434.045" width="11.1867" height="37.2891" transform="rotate(-90 428.524 434.045)" fill="#30277D"/>
<rect x="620.189" y="362.078" width="11.1867" height="45.1198" transform="rotate(-90 620.189 362.078)" fill="#30277D"/>
<rect x="757.787" y="356.484" width="11.1867" height="78.68" transform="rotate(-90 757.787 356.484)" fill="#30277D"/>
<rect x="875.247" y="356.484" width="11.1867" height="78.68" transform="rotate(-90 875.247 356.484)" fill="#30277D"/>
<rect x="886.434" y="488.488" width="11.1867" height="143.19" transform="rotate(-180 886.434 488.488)" fill="#30277D"/>
<rect x="836.467" y="488.488" width="11.1867" height="143.19" transform="rotate(-180 836.467 488.488)" fill="#30277D"/>
<rect x="760.77" y="488.488" width="11.1867" height="62.2728" transform="rotate(-180 760.77 488.488)" fill="#30277D"/>
<rect x="760.77" y="407.57" width="11.1867" height="70.8493" transform="rotate(-180 760.77 407.57)" fill="#30277D"/>
<rect x="761.888" y="314.72" width="11.1867" height="98.8162" transform="rotate(-180 761.888 314.72)" fill="#30277D"/>
<rect x="983.759" y="356.484" width="11.1867" height="49.9674" transform="rotate(-90 983.759 356.484)" fill="#30277D"/>
<rect x="757.787" y="299.059" width="11.1867" height="37.2891" transform="rotate(-90 757.787 299.059)" fill="#30277D"/>
<rect x="812.229" y="299.059" width="11.1867" height="37.2891" transform="rotate(-90 812.229 299.059)" fill="#30277D"/>
<rect x="874.875" y="299.059" width="11.1867" height="37.2891" transform="rotate(-90 874.875 299.059)" fill="#30277D"/>
<rect x="937.52" y="299.059" width="11.1867" height="37.2891" transform="rotate(-90 937.52 299.059)" fill="#30277D"/>
<rect x="996.437" y="299.059" width="11.1867" height="37.2891" transform="rotate(-90 996.437 299.059)" fill="#30277D"/>
<rect x="757.787" y="227.091" width="11.1867" height="37.2891" transform="rotate(-90 757.787 227.091)" fill="#30277D"/>
<rect x="736.532" y="168.174" width="11.1867" height="37.2891" transform="rotate(-90 736.532 168.174)" fill="#30277D"/>
<rect x="625.783" y="164.072" width="11.1867" height="63.7644" transform="rotate(-90 625.783 164.072)" fill="#30277D"/>
<rect x="516.153" y="164.072" width="11.1867" height="63.7644" transform="rotate(-90 516.153 164.072)" fill="#30277D"/>
<rect x="365.132" y="166.31" width="11.1867" height="52.5777" transform="rotate(-90 365.132 166.31)" fill="#30277D"/>
<rect x="442.321" y="166.31" width="11.1867" height="38.7807" transform="rotate(-90 442.321 166.31)" fill="#30277D"/>
<rect x="477.373" y="135.732" width="11.1867" height="38.7807" transform="rotate(-90 477.373 135.732)" fill="#30277D"/>
<rect x="484.83" y="166.31" width="11.1867" height="41.7638" transform="rotate(-180 484.83 166.31)" fill="#30277D"/>
<rect x="485" y="195" width="11" height="30" transform="rotate(-180 485 195)" fill="#30277D"/>
<rect x="434.49" y="434.045" width="11.1867" height="88.7481" transform="rotate(-180 434.49 434.045)" fill="#30277D"/>
<rect x="529.95" y="434.045" width="11.1867" height="88.7481" transform="rotate(-180 529.95 434.045)" fill="#30277D"/>
<rect x="700.734" y="434.045" width="11.1867" height="94.3415" transform="rotate(-180 700.734 434.045)" fill="#30277D"/>
<rect x="700.361" y="320.313" width="11.1867" height="38.0349" transform="rotate(-180 700.361 320.313)" fill="#30277D"/>
<rect x="836.467" y="293.466" width="11.1867" height="71.2222" transform="rotate(-180 836.467 293.466)" fill="#30277D"/>
<rect x="899.943" y="290.855" width="11.1867" height="71.2222" transform="rotate(-180 899.943 290.855)" fill="#30277D"/>
<rect x="958.927" y="290.855" width="11.1867" height="71.2222" transform="rotate(-180 958.927 290.855)" fill="#30277D"/>
<rect x="817.822" y="227.091" width="11.1867" height="204.717" transform="rotate(-90 817.822 227.091)" fill="#30277D"/>
<rect x="624.292" y="293.466" width="11.1867" height="76.4427" transform="rotate(-90 624.292 293.466)" fill="#30277D"/>
<rect x="487.067" y="434.045" width="11.1867" height="74.9511" transform="rotate(-90 487.067 434.045)" fill="#30277D"/>
<rect x="583.273" y="434.045" width="11.1867" height="82.0361" transform="rotate(-90 583.273 434.045)" fill="#30277D"/>
<rect x="428.524" y="356.484" width="11.1867" height="191.666" transform="rotate(-90 428.524 356.484)" fill="#30277D"/>
<rect x="554.934" y="243.871" width="11.1867" height="145.8" transform="rotate(-90 554.934 243.871)" fill="#30277D"/>
<rect x="1033.73" y="174.141" width="11.1867" height="166.682" transform="rotate(-180 1033.73 174.141)" fill="#30277D"/>
</svg>
