<svg width="1140" height="495" viewBox="0 0 1140 495" fill="none" xmlns="http://www.w3.org/2000/svg">
<path d="M154.507 192.525C152.437 183.415 144.49 179.313 137.51 179.313C137.51 179.313 137.51 179.313 137.49 179.313C130.53 179.313 122.563 183.395 120.493 192.505C118.186 202.68 124.417 211.297 130.056 216.719C132.146 218.73 134.828 219.736 137.51 219.736C140.192 219.736 142.873 218.73 144.944 216.719C150.583 211.297 156.814 202.699 154.507 192.525ZM137.51 202.404C134.079 202.404 131.299 199.623 131.299 196.192C131.299 192.761 134.079 189.981 137.51 189.981C140.941 189.981 143.721 192.761 143.721 196.192C143.721 199.623 140.941 202.404 137.51 202.404Z" fill="#30277D"/>
<path d="M335.507 149.211C333.437 140.101 325.49 136 318.51 136C318.51 136 318.51 136 318.49 136C311.53 136 303.563 140.082 301.493 149.192C299.186 159.366 305.417 167.983 311.056 173.406C313.146 175.417 315.828 176.423 318.51 176.423C321.192 176.423 323.873 175.417 325.944 173.406C331.583 167.983 337.814 159.386 335.507 149.211ZM318.51 159.09C315.079 159.09 312.299 156.31 312.299 152.879C312.299 149.448 315.079 146.668 318.51 146.668C321.941 146.668 324.721 149.448 324.721 152.879C324.721 156.31 321.941 159.09 318.51 159.09Z" fill="#30277D"/>
<path d="M457.507 74.2113C455.437 65.1014 447.49 61 440.51 61C440.51 61 440.51 61 440.49 61C433.53 61 425.563 65.0817 423.493 74.1916C421.186 84.3662 427.417 92.9831 433.056 98.4057C435.146 100.417 437.828 101.423 440.51 101.423C443.192 101.423 445.873 100.417 447.944 98.4057C453.583 92.9831 459.814 84.3859 457.507 74.2113ZM440.51 84.0902C437.079 84.0902 434.299 81.3099 434.299 77.8789C434.299 74.4479 437.079 71.6676 440.51 71.6676C443.941 71.6676 446.721 74.4479 446.721 77.8789C446.721 81.3099 443.941 84.0902 440.51 84.0902Z" fill="#30277D"/>
<path d="M623.507 75.2113C621.437 66.1014 613.49 62 606.51 62C606.51 62 606.51 62 606.49 62C599.53 62 591.563 66.0817 589.493 75.1916C587.186 85.3662 593.417 93.9831 599.056 99.4057C601.146 101.417 603.828 102.423 606.51 102.423C609.192 102.423 611.873 101.417 613.944 99.4057C619.583 93.9831 625.814 85.3859 623.507 75.2113ZM606.51 85.0902C603.079 85.0902 600.299 82.3099 600.299 78.8789C600.299 75.4479 603.079 72.6676 606.51 72.6676C609.941 72.6676 612.721 75.4479 612.721 78.8789C612.721 82.3099 609.941 85.0902 606.51 85.0902Z" fill="#30277D"/>
<path d="M752.507 77.2113C750.437 68.1014 742.49 64 735.51 64C735.51 64 735.51 64 735.49 64C728.53 64 720.563 68.0817 718.493 77.1916C716.186 87.3662 722.417 95.9831 728.056 101.406C730.146 103.417 732.828 104.423 735.51 104.423C738.192 104.423 740.873 103.417 742.944 101.406C748.583 95.9831 754.814 87.3859 752.507 77.2113ZM735.51 87.0902C732.079 87.0902 729.299 84.3099 729.299 80.8789C729.299 77.4479 732.079 74.6676 735.51 74.6676C738.941 74.6676 741.721 77.4479 741.721 80.8789C741.721 84.3099 738.941 87.0902 735.51 87.0902Z" fill="#30277D"/>
<path d="M831.507 77.2113C829.437 68.1014 821.49 64 814.51 64C814.51 64 814.51 64 814.49 64C807.53 64 799.563 68.0817 797.493 77.1916C795.186 87.3662 801.417 95.9831 807.056 101.406C809.146 103.417 811.828 104.423 814.51 104.423C817.192 104.423 819.873 103.417 821.944 101.406C827.583 95.9831 833.814 87.3859 831.507 77.2113ZM814.51 87.0902C811.079 87.0902 808.299 84.3099 808.299 80.8789C808.299 77.4479 811.079 74.6676 814.51 74.6676C817.941 74.6676 820.721 77.4479 820.721 80.8789C820.721 84.3099 817.941 87.0902 814.51 87.0902Z" fill="#30277D"/>
<path d="M960.507 77.2113C958.437 68.1014 950.49 64 943.51 64C943.51 64 943.51 64 943.49 64C936.53 64 928.563 68.0817 926.493 77.1916C924.186 87.3662 930.417 95.9831 936.056 101.406C938.146 103.417 940.828 104.423 943.51 104.423C946.192 104.423 948.873 103.417 950.944 101.406C956.583 95.9831 962.814 87.3859 960.507 77.2113ZM943.51 87.0902C940.079 87.0902 937.299 84.3099 937.299 80.8789C937.299 77.4479 940.079 74.6676 943.51 74.6676C946.941 74.6676 949.721 77.4479 949.721 80.8789C949.721 84.3099 946.941 87.0902 943.51 87.0902Z" fill="#30277D"/>
<path d="M810.507 250.211C808.437 241.101 800.49 237 793.51 237C793.51 237 793.51 237 793.49 237C786.53 237 778.563 241.082 776.493 250.192C774.186 260.366 780.417 268.983 786.056 274.406C788.146 276.417 790.828 277.423 793.51 277.423C796.192 277.423 798.873 276.417 800.944 274.406C806.583 268.983 812.814 260.386 810.507 250.211ZM793.51 260.09C790.079 260.09 787.299 257.31 787.299 253.879C787.299 250.448 790.079 247.668 793.51 247.668C796.941 247.668 799.721 250.448 799.721 253.879C799.721 257.31 796.941 260.09 793.51 260.09Z" fill="#30277D"/>
<path d="M878.507 250.211C876.437 241.101 868.49 237 861.51 237C861.51 237 861.51 237 861.49 237C854.53 237 846.563 241.082 844.493 250.192C842.186 260.366 848.417 268.983 854.056 274.406C856.146 276.417 858.828 277.423 861.51 277.423C864.192 277.423 866.873 276.417 868.944 274.406C874.583 268.983 880.814 260.386 878.507 250.211ZM861.51 260.09C858.079 260.09 855.299 257.31 855.299 253.879C855.299 250.448 858.079 247.668 861.51 247.668C864.941 247.668 867.721 250.448 867.721 253.879C867.721 257.31 864.941 260.09 861.51 260.09Z" fill="#30277D"/>
<path d="M942.507 251.211C940.437 242.101 932.49 238 925.51 238C925.51 238 925.51 238 925.49 238C918.53 238 910.563 242.082 908.493 251.192C906.186 261.366 912.417 269.983 918.056 275.406C920.146 277.417 922.828 278.423 925.51 278.423C928.192 278.423 930.873 277.417 932.944 275.406C938.583 269.983 944.814 261.386 942.507 251.211ZM925.51 261.09C922.079 261.09 919.299 258.31 919.299 254.879C919.299 251.448 922.079 248.668 925.51 248.668C928.941 248.668 931.721 251.448 931.721 254.879C931.721 258.31 928.941 261.09 925.51 261.09Z" fill="#30277D"/>
<path d="M1006.51 251.211C1004.44 242.101 996.49 238 989.51 238C989.51 238 989.51 238 989.49 238C982.53 238 974.563 242.082 972.493 251.192C970.186 261.366 976.417 269.983 982.056 275.406C984.146 277.417 986.828 278.423 989.51 278.423C992.192 278.423 994.873 277.417 996.944 275.406C1002.58 269.983 1008.81 261.386 1006.51 251.211ZM989.51 261.09C986.079 261.09 983.299 258.31 983.299 254.879C983.299 251.448 986.079 248.668 989.51 248.668C992.941 248.668 995.721 251.448 995.721 254.879C995.721 258.31 992.941 261.09 989.51 261.09Z" fill="#30277D"/>
<path d="M1102.51 194.211C1100.44 185.101 1092.49 181 1085.51 181C1085.51 181 1085.51 181 1085.49 181C1078.53 181 1070.56 185.082 1068.49 194.192C1066.19 204.366 1072.42 212.983 1078.06 218.406C1080.15 220.417 1082.83 221.423 1085.51 221.423C1088.19 221.423 1090.87 220.417 1092.94 218.406C1098.58 212.983 1104.81 204.386 1102.51 194.211ZM1085.51 204.09C1082.08 204.09 1079.3 201.31 1079.3 197.879C1079.3 194.448 1082.08 191.668 1085.51 191.668C1088.94 191.668 1091.72 194.448 1091.72 197.879C1091.72 201.31 1088.94 204.09 1085.51 204.09Z" fill="#30277D"/>
<path d="M1102.51 380.211C1100.44 371.101 1092.49 367 1085.51 367C1085.51 367 1085.51 367 1085.49 367C1078.53 367 1070.56 371.082 1068.49 380.192C1066.19 390.366 1072.42 398.983 1078.06 404.406C1080.15 406.417 1082.83 407.423 1085.51 407.423C1088.19 407.423 1090.87 406.417 1092.94 404.406C1098.58 398.983 1104.81 390.386 1102.51 380.211ZM1085.51 390.09C1082.08 390.09 1079.3 387.31 1079.3 383.879C1079.3 380.448 1082.08 377.668 1085.51 377.668C1088.94 377.668 1091.72 380.448 1091.72 383.879C1091.72 387.31 1088.94 390.09 1085.51 390.09Z" fill="#30277D"/>
<path d="M970.507 407.211C968.437 398.101 960.49 394 953.51 394C953.51 394 953.51 394 953.49 394C946.53 394 938.563 398.082 936.493 407.192C934.186 417.366 940.417 425.983 946.056 431.406C948.146 433.417 950.828 434.423 953.51 434.423C956.192 434.423 958.873 433.417 960.944 431.406C966.583 425.983 972.814 417.386 970.507 407.211ZM953.51 417.09C950.079 417.09 947.299 414.31 947.299 410.879C947.299 407.448 950.079 404.668 953.51 404.668C956.941 404.668 959.721 407.448 959.721 410.879C959.721 414.31 956.941 417.09 953.51 417.09Z" fill="#30277D"/>
<path d="M873.507 407.211C871.437 398.101 863.49 394 856.51 394C856.51 394 856.51 394 856.49 394C849.53 394 841.563 398.082 839.493 407.192C837.186 417.366 843.417 425.983 849.056 431.406C851.146 433.417 853.828 434.423 856.51 434.423C859.192 434.423 861.873 433.417 863.944 431.406C869.583 425.983 875.814 417.386 873.507 407.211ZM856.51 417.09C853.079 417.09 850.299 414.31 850.299 410.879C850.299 407.448 853.079 404.668 856.51 404.668C859.941 404.668 862.721 407.448 862.721 410.879C862.721 414.31 859.941 417.09 856.51 417.09Z" fill="#30277D"/>
<path d="M809.507 407.211C807.437 398.101 799.49 394 792.51 394C792.51 394 792.51 394 792.49 394C785.53 394 777.563 398.082 775.493 407.192C773.186 417.366 779.417 425.983 785.056 431.406C787.146 433.417 789.828 434.423 792.51 434.423C795.192 434.423 797.873 433.417 799.944 431.406C805.583 425.983 811.814 417.386 809.507 407.211ZM792.51 417.09C789.079 417.09 786.299 414.31 786.299 410.879C786.299 407.448 789.079 404.668 792.51 404.668C795.941 404.668 798.721 407.448 798.721 410.879C798.721 414.31 795.941 417.09 792.51 417.09Z" fill="#30277D"/>
<path d="M677.507 383.211C675.437 374.101 667.49 370 660.51 370C660.51 370 660.51 370 660.49 370C653.53 370 645.563 374.082 643.493 383.192C641.186 393.366 647.417 401.983 653.056 407.406C655.146 409.417 657.828 410.423 660.51 410.423C663.192 410.423 665.873 409.417 667.944 407.406C673.583 401.983 679.814 393.386 677.507 383.211ZM660.51 393.09C657.079 393.09 654.299 390.31 654.299 386.879C654.299 383.448 657.079 380.668 660.51 380.668C663.941 380.668 666.721 383.448 666.721 386.879C666.721 390.31 663.941 393.09 660.51 393.09Z" fill="#30277D"/>
<path d="M677.507 314.211C675.437 305.101 667.49 301 660.51 301C660.51 301 660.51 301 660.49 301C653.53 301 645.563 305.082 643.493 314.192C641.186 324.366 647.417 332.983 653.056 338.406C655.146 340.417 657.828 341.423 660.51 341.423C663.192 341.423 665.873 340.417 667.944 338.406C673.583 332.983 679.814 324.386 677.507 314.211ZM660.51 324.09C657.079 324.09 654.299 321.31 654.299 317.879C654.299 314.448 657.079 311.668 660.51 311.668C663.941 311.668 666.721 314.448 666.721 317.879C666.721 321.31 663.941 324.09 660.51 324.09Z" fill="#30277D"/>
<path d="M590.507 383.211C588.437 374.101 580.49 370 573.51 370C573.51 370 573.51 370 573.49 370C566.53 370 558.563 374.082 556.493 383.192C554.186 393.366 560.417 401.983 566.056 407.406C568.146 409.417 570.828 410.423 573.51 410.423C576.192 410.423 578.873 409.417 580.944 407.406C586.583 401.983 592.814 393.386 590.507 383.211ZM573.51 393.09C570.079 393.09 567.299 390.31 567.299 386.879C567.299 383.448 570.079 380.668 573.51 380.668C576.941 380.668 579.721 383.448 579.721 386.879C579.721 390.31 576.941 393.09 573.51 393.09Z" fill="#30277D"/>
<path d="M495.507 385.211C493.437 376.101 485.49 372 478.51 372C478.51 372 478.51 372 478.49 372C471.53 372 463.563 376.082 461.493 385.192C459.186 395.366 465.417 403.983 471.056 409.406C473.146 411.417 475.828 412.423 478.51 412.423C481.192 412.423 483.873 411.417 485.944 409.406C491.583 403.983 497.814 395.386 495.507 385.211ZM478.51 395.09C475.079 395.09 472.299 392.31 472.299 388.879C472.299 385.448 475.079 382.668 478.51 382.668C481.941 382.668 484.721 385.448 484.721 388.879C484.721 392.31 481.941 395.09 478.51 395.09Z" fill="#30277D"/>
<path d="M539.507 284.211C537.437 275.101 529.49 271 522.51 271C522.51 271 522.51 271 522.49 271C515.53 271 507.563 275.082 505.493 284.192C503.186 294.366 509.417 302.983 515.056 308.406C517.146 310.417 519.828 311.423 522.51 311.423C525.192 311.423 527.873 310.417 529.944 308.406C535.583 302.983 541.814 294.386 539.507 284.211ZM522.51 294.09C519.079 294.09 516.299 291.31 516.299 287.879C516.299 284.448 519.079 281.668 522.51 281.668C525.941 281.668 528.721 284.448 528.721 287.879C528.721 291.31 525.941 294.09 522.51 294.09Z" fill="#30277D"/>
<path d="M547.507 189.211C545.437 180.101 537.49 176 530.51 176C530.51 176 530.51 176 530.49 176C523.53 176 515.563 180.082 513.493 189.192C511.186 199.366 517.417 207.983 523.056 213.406C525.146 215.417 527.828 216.423 530.51 216.423C533.192 216.423 535.873 215.417 537.944 213.406C543.583 207.983 549.814 199.386 547.507 189.211ZM530.51 199.09C527.079 199.09 524.299 196.31 524.299 192.879C524.299 189.448 527.079 186.668 530.51 186.668C533.941 186.668 536.721 189.448 536.721 192.879C536.721 196.31 533.941 199.09 530.51 199.09Z" fill="#30277D"/>
<rect x="125.363" y="494.081" width="11.1867" height="125.291" transform="rotate(-90 125.363 494.081)" fill="#30277D"/>
<rect y="367.08" width="11.1867" height="178.469" transform="rotate(-44.6334 0 367.08)" fill="#30277D"/>
<rect x="11.2588" y="367.671" width="11.1867" height="356.111" transform="rotate(-180 11.2588 367.671)" fill="#30277D"/>
<rect x="0.0717773" y="22.7466" width="11.1867" height="364.688" transform="rotate(-90 0.0717773 22.7466)" fill="#30277D"/>
<rect x="359.539" y="260.278" width="260.278" height="11.1867" transform="rotate(-90 359.539 260.278)" fill="#30277D"/>
<rect x="258.112" y="259.533" width="247.973" height="11.1867" transform="rotate(-90 258.112 259.533)" fill="#30277D"/>
<rect x="246.926" y="482.894" width="177.869" height="11.1867" transform="rotate(-90 246.926 482.894)" fill="#30277D"/>
<rect x="359.166" y="488.488" width="65.6288" height="11.1867" transform="rotate(-90 359.166 488.488)" fill="#30277D"/>
<rect x="359.166" y="397.875" width="115.596" height="11.1867" transform="rotate(-90 359.166 397.875)" fill="#30277D"/>
<rect x="614.596" y="426.215" width="143.936" height="11.1867" transform="rotate(-90 614.596 426.215)" fill="#30277D"/>
<rect x="364.759" y="11.5596" width="11.1867" height="769.647" transform="rotate(-90 364.759 11.5596)" fill="#30277D"/>
<rect x="1128.81" y="113.359" width="112.986" height="11.1867" transform="rotate(-90 1128.81 113.359)" fill="#30277D"/>
<rect x="1128.81" y="491.471" width="341.195" height="11.1867" transform="rotate(-90 1128.81 491.471)" fill="#30277D"/>
<rect x="1140" y="494.081" width="889.345" height="11.1867" transform="rotate(-180 1140 494.081)" fill="#30277D"/>
<rect x="1086.3" y="302.042" width="11.1867" height="42.5096" transform="rotate(-90 1086.3 302.042)" fill="#30277D"/>
<rect x="1113.15" y="113.359" width="11.1867" height="26.8482" transform="rotate(-90 1113.15 113.359)" fill="#30277D"/>
<rect x="1033.73" y="113.359" width="11.1867" height="39.8994" transform="rotate(-90 1033.73 113.359)" fill="#30277D"/>
<rect x="1033.73" y="65.6289" width="11.1867" height="39.8994" transform="rotate(-90 1033.73 65.6289)" fill="#30277D"/>
<rect x="1079.22" y="79.7993" width="11.1867" height="39.8994" transform="rotate(180 1079.22 79.7993)" fill="#30277D"/>
<rect x="1022.54" y="302.042" width="11.1867" height="42.5096" transform="rotate(-90 1022.54 302.042)" fill="#30277D"/>
<rect x="1033.73" y="482.894" width="11.1867" height="146.173" transform="rotate(-180 1033.73 482.894)" fill="#30277D"/>
<rect x="1033.73" y="315.839" width="11.1867" height="105.901" transform="rotate(-180 1033.73 315.839)" fill="#30277D"/>
<rect x="927.825" y="169.666" width="11.1867" height="105.901" transform="rotate(-90 927.825 169.666)" fill="#30277D"/>
<rect x="810.364" y="169.666" width="11.1867" height="85.3921" transform="rotate(-90 810.364 169.666)" fill="#30277D"/>
<rect x="852.874" y="169.666" width="11.1867" height="72.7138" transform="rotate(-180 852.874 169.666)" fill="#30277D"/>
<rect x="852.874" y="70.104" width="11.1867" height="69.7306" transform="rotate(-180 852.874 70.104)" fill="#30277D"/>
<rect x="782.024" y="168.174" width="11.1867" height="167.801" transform="rotate(-180 782.024 168.174)" fill="#30277D"/>
<rect x="700.734" y="243.871" width="11.1867" height="243.498" transform="rotate(-180 700.734 243.871)" fill="#30277D"/>
<rect x="527.34" y="162.581" width="11.1867" height="162.208" transform="rotate(-180 527.34 162.581)" fill="#30277D"/>
<rect x="370.353" y="243.871" width="11.1867" height="145.8" transform="rotate(-90 370.353 243.871)" fill="#30277D"/>
<rect x="246.926" y="316.212" width="11.1867" height="123.8" transform="rotate(-90 246.926 316.212)" fill="#30277D"/>
<rect x="428.524" y="434.045" width="11.1867" height="37.2891" transform="rotate(-90 428.524 434.045)" fill="#30277D"/>
<rect x="620.189" y="362.078" width="11.1867" height="45.1198" transform="rotate(-90 620.189 362.078)" fill="#30277D"/>
<rect x="757.787" y="356.484" width="11.1867" height="78.68" transform="rotate(-90 757.787 356.484)" fill="#30277D"/>
<rect x="875.247" y="356.484" width="11.1867" height="78.68" transform="rotate(-90 875.247 356.484)" fill="#30277D"/>
<rect x="886.434" y="488.488" width="11.1867" height="143.19" transform="rotate(-180 886.434 488.488)" fill="#30277D"/>
<rect x="836.467" y="488.488" width="11.1867" height="143.19" transform="rotate(-180 836.467 488.488)" fill="#30277D"/>
<rect x="760.77" y="488.488" width="11.1867" height="62.2728" transform="rotate(-180 760.77 488.488)" fill="#30277D"/>
<rect x="760.77" y="407.57" width="11.1867" height="70.8493" transform="rotate(-180 760.77 407.57)" fill="#30277D"/>
<rect x="761.888" y="314.72" width="11.1867" height="98.8162" transform="rotate(-180 761.888 314.72)" fill="#30277D"/>
<rect x="983.759" y="356.484" width="11.1867" height="49.9674" transform="rotate(-90 983.759 356.484)" fill="#30277D"/>
<rect x="757.787" y="299.059" width="11.1867" height="37.2891" transform="rotate(-90 757.787 299.059)" fill="#30277D"/>
<rect x="812.229" y="299.059" width="11.1867" height="37.2891" transform="rotate(-90 812.229 299.059)" fill="#30277D"/>
<rect x="874.875" y="299.059" width="11.1867" height="37.2891" transform="rotate(-90 874.875 299.059)" fill="#30277D"/>
<rect x="937.52" y="299.059" width="11.1867" height="37.2891" transform="rotate(-90 937.52 299.059)" fill="#30277D"/>
<rect x="996.437" y="299.059" width="11.1867" height="37.2891" transform="rotate(-90 996.437 299.059)" fill="#30277D"/>
<rect x="757.787" y="227.091" width="11.1867" height="37.2891" transform="rotate(-90 757.787 227.091)" fill="#30277D"/>
<rect x="736.532" y="168.174" width="11.1867" height="37.2891" transform="rotate(-90 736.532 168.174)" fill="#30277D"/>
<rect x="625.783" y="164.072" width="11.1867" height="63.7644" transform="rotate(-90 625.783 164.072)" fill="#30277D"/>
<rect x="516.153" y="164.072" width="11.1867" height="63.7644" transform="rotate(-90 516.153 164.072)" fill="#30277D"/>
<rect x="365.132" y="166.31" width="11.1867" height="52.5777" transform="rotate(-90 365.132 166.31)" fill="#30277D"/>
<rect x="442.321" y="166.31" width="11.1867" height="38.7807" transform="rotate(-90 442.321 166.31)" fill="#30277D"/>
<rect x="477.373" y="135.732" width="11.1867" height="38.7807" transform="rotate(-90 477.373 135.732)" fill="#30277D"/>
<rect x="484.83" y="166.31" width="11.1867" height="41.7638" transform="rotate(-180 484.83 166.31)" fill="#30277D"/>
<rect x="485" y="195" width="11" height="30" transform="rotate(-180 485 195)" fill="#30277D"/>
<rect x="434.49" y="434.045" width="11.1867" height="88.7481" transform="rotate(-180 434.49 434.045)" fill="#30277D"/>
<rect x="529.95" y="434.045" width="11.1867" height="88.7481" transform="rotate(-180 529.95 434.045)" fill="#30277D"/>
<rect x="700.734" y="434.045" width="11.1867" height="94.3415" transform="rotate(-180 700.734 434.045)" fill="#30277D"/>
<rect x="700.361" y="320.313" width="11.1867" height="38.0349" transform="rotate(-180 700.361 320.313)" fill="#30277D"/>
<rect x="836.467" y="293.466" width="11.1867" height="71.2222" transform="rotate(-180 836.467 293.466)" fill="#30277D"/>
<rect x="899.943" y="290.855" width="11.1867" height="71.2222" transform="rotate(-180 899.943 290.855)" fill="#30277D"/>
<rect x="958.927" y="290.855" width="11.1867" height="71.2222" transform="rotate(-180 958.927 290.855)" fill="#30277D"/>
<rect x="817.822" y="227.091" width="11.1867" height="204.717" transform="rotate(-90 817.822 227.091)" fill="#30277D"/>
<rect x="624.292" y="293.466" width="11.1867" height="76.4427" transform="rotate(-90 624.292 293.466)" fill="#30277D"/>
<rect x="487.067" y="434.045" width="11.1867" height="74.9511" transform="rotate(-90 487.067 434.045)" fill="#30277D"/>
<rect x="583.273" y="434.045" width="11.1867" height="82.0361" transform="rotate(-90 583.273 434.045)" fill="#30277D"/>
<rect x="428.524" y="356.484" width="11.1867" height="191.666" transform="rotate(-90 428.524 356.484)" fill="#30277D"/>
<rect x="554.934" y="243.871" width="11.1867" height="145.8" transform="rotate(-90 554.934 243.871)" fill="#30277D"/>
<rect x="1033.73" y="174.141" width="11.1867" height="166.682" transform="rotate(-180 1033.73 174.141)" fill="#30277D"/>
</svg>
