<svg width="92" height="92" viewBox="0 0 92 92" fill="none" xmlns="http://www.w3.org/2000/svg">
<path d="M46 0C20.6305 0 0 20.6306 0 46C0 71.3695 20.6305 92 46 92C71.3695 92 92 71.3695 92 46C92 20.6306 71.3695 0 46 0ZM46 6C68.1269 6 86 23.8732 86 46C86 68.1269 68.1269 86 46 86C23.8731 86 6 68.1269 6 46C6 23.8732 23.8731 6 46 6ZM46 13C44.3432 13 43 14.3432 43 16V46C43 47.6569 44.3432 49 46 49H74C75.6568 49 77 47.6569 77 46C77 44.3432 75.6568 43 74 43H49V16C49 14.3432 47.6569 13 46 13Z" fill="black"/>
</svg>
