<svg width="30" height="23" viewBox="0 0 30 23" fill="none" xmlns="http://www.w3.org/2000/svg">
<path d="M25.79 22.9201H3.88962C2.85889 22.917 1.87126 22.5061 1.14247 21.7772C0.413683 21.0483 0.00295729 20.0606 1.08089e-05 19.0299V3.89028C-0.0023126 2.90166 0.37001 1.94888 1.04201 1.22377L1.04494 1.22133L1.04782 1.21836L1.04982 1.21641L1.05082 1.21543C1.4169 0.830986 1.85733 0.524997 2.34534 0.316064C2.83336 0.107131 3.35876 -0.00038105 3.88962 6.18055e-05H25.79C26.3017 -0.00283054 26.8088 0.09582 27.2821 0.2903C27.7553 0.484779 28.1853 0.771223 28.547 1.13304C28.9088 1.49486 29.1952 1.92486 29.3896 2.39813C29.584 2.87141 29.6826 3.37856 29.6797 3.8902V19.0299C29.6758 20.0603 29.2647 21.0475 28.5361 21.7762C27.8075 22.5048 26.8205 22.916 25.79 22.9201ZM3.34182 20.8414C3.51968 20.8939 3.70419 20.9204 3.88962 20.9201H25.79C25.9279 20.9203 26.0654 20.9057 26.2002 20.8766L18.1543 12.9303L17.4678 13.6163C16.7698 14.3122 15.8252 14.7041 14.8397 14.7066C13.8542 14.7092 12.9075 14.3222 12.206 13.6299L11.375 12.8097L3.34182 20.8414ZM19.5684 11.5162L27.628 19.4747C27.6624 19.3289 27.6798 19.1797 27.6797 19.0299V3.89024C27.6796 3.74601 27.6636 3.60223 27.6319 3.46152C25.4968 5.59371 21.7195 9.36745 19.5684 11.5162ZM2.02539 3.57041C2.0085 3.67618 2.00001 3.78313 2 3.89024V19.0299C1.99994 19.1309 2.00777 19.2318 2.02343 19.3316L9.95214 11.4039C7.96843 9.44279 3.74907 5.27426 2.02539 3.57041ZM13.6133 12.2096C13.9373 12.531 14.3753 12.7111 14.8317 12.7106C15.288 12.71 15.7256 12.5288 16.0488 12.2066C16.3174 11.9356 19.4609 8.79595 22.3408 5.91997L26.2168 2.0479C26.0768 2.01595 25.9336 1.9999 25.79 2.00006H3.88962C3.70991 1.99992 3.53107 2.02507 3.35837 2.07477C5.72718 4.41806 12.2498 10.8572 13.6133 12.2096Z" fill="black"/>
</svg>
