<svg width="35" height="41" viewBox="0 0 35 41" fill="none" xmlns="http://www.w3.org/2000/svg">
<g id="&#240;&#159;&#166;&#134; icon &#34;location&#34;">
<path id="Vector" d="M34.5071 13.2113C32.4367 4.10141 24.4902 0 17.5099 0C17.5099 0 17.5099 0 17.4902 0C10.5295 0 2.56334 4.08169 0.492915 13.1916C-1.81413 23.3662 4.41686 31.9831 10.0563 37.4057C12.1464 39.4169 14.8282 40.4226 17.5099 40.4226C20.1916 40.4226 22.8733 39.4169 24.9437 37.4057C30.5831 31.9831 36.8141 23.3859 34.5071 13.2113ZM17.5099 23.0902C14.0789 23.0902 11.2986 20.3099 11.2986 16.8789C11.2986 13.4479 14.0789 10.6676 17.5099 10.6676C20.9409 10.6676 23.7212 13.4479 23.7212 16.8789C23.7212 20.3099 20.9409 23.0902 17.5099 23.0902Z" fill="#30277D"/>
</g>
</svg>
