<svg width="30" height="30" viewBox="0 0 30 30" fill="none" xmlns="http://www.w3.org/2000/svg">
<path d="M21.2129 29.6552C12.2816 29.8871 -5.46737 11.3709 1.64086 3.7153C2.89847 2.23262 4.1956 0.191416 6.17184 0.0062257C6.61618 -0.0215155 7.06143 0.0436603 7.47918 0.197596C7.89693 0.351531 8.27801 0.590847 8.59811 0.900276L12.1513 4.45062C12.4561 4.75812 12.6958 5.12383 12.8563 5.52594C13.0168 5.92806 13.0946 6.35835 13.0853 6.79119C13.0759 7.22404 12.9796 7.65057 12.8019 8.04538C12.6243 8.4402 12.3689 8.79522 12.0512 9.08929L11.1089 9.95355C9.75567 11.0898 11.9761 13.8032 14.0176 15.9497C16.353 18.0346 18.5444 19.8017 19.7236 18.5502L20.5786 17.6171C20.8728 17.2995 21.2279 17.0444 21.6227 16.8668C22.0176 16.6893 22.4441 16.593 22.8769 16.5836C23.3097 16.5743 23.74 16.6521 24.1422 16.8125C24.5443 16.9728 24.9101 17.2124 25.2177 17.517L28.7221 21.0214C29.0435 21.3448 29.2933 21.7322 29.4553 22.1584C29.6172 22.5847 29.6877 23.0402 29.662 23.4955C29.5175 25.1434 28.0204 26.35 26.6996 27.4144C25.2266 28.8387 23.2618 29.6411 21.2129 29.6552ZM6.43112 1.99403C5.54612 2.01503 4.61281 3.24592 3.79683 4.23864C0.138421 8.23083 2.14583 13.2741 9.04623 20.6518C16.3825 27.5227 21.435 29.5216 25.4447 25.8574C26.4047 25.0834 27.5996 24.121 27.6694 23.3207C27.6787 23.2157 27.707 22.8959 27.2617 22.3861L23.8037 18.931C20.9062 16.7558 21.605 25.7943 12.4863 17.2635C3.7983 8.06362 12.9306 8.76631 10.7374 5.86462L7.23288 2.36024C7.02014 2.14318 6.73448 2.0127 6.43112 1.99403Z" fill="#30277D"/>
</svg>
